<svg width="40" height="40" viewBox="0 0 40 40" fill="none" xmlns="http://www.w3.org/2000/svg">
<path d="M32.7084 36.6667L29.305 33.6667L27.3867 31.8833L25.3584 30L26.1917 32.9317H8.24502C6.44772 32.9252 4.99541 31.464 5.00001 29.6667V8.26167C4.99725 6.46565 6.44902 5.00643 8.24502 5H29.4634C31.2594 5.00643 32.7111 6.46565 32.7084 8.26167V36.6667ZM25.1667 22.5133C24.4639 23.4559 23.4522 24.1213 22.3084 24.3933C22.7784 24.9933 23.345 25.6717 23.35 25.6783C25.2619 25.7187 27.0721 24.8195 28.195 23.2717C28.1375 20.0629 27.3582 16.9082 25.915 14.0417C24.6444 13.0446 23.0977 12.4627 21.485 12.375H21.4667L21.245 12.6283C22.6855 13.0153 24.0289 13.7 25.1884 14.6383C23.7131 13.8273 22.0941 13.3111 20.4217 13.1183C19.3587 13.0003 18.2854 13.0109 17.225 13.15C17.1501 13.1515 17.0753 13.1593 17.0017 13.1733H16.955C15.7123 13.3164 14.4997 13.6539 13.3617 14.1733C12.7917 14.435 12.4417 14.625 12.4267 14.6317C12.4117 14.6383 12.4267 14.6317 12.4267 14.62C13.6565 13.6527 15.0753 12.9538 16.5917 12.5683L16.425 12.3783H16.415C14.8023 12.4663 13.2557 13.0481 11.985 14.045C10.5365 16.9096 9.75696 20.0655 9.70502 23.275C10.8139 24.8331 12.6267 25.7358 14.5384 25.6817C14.5384 25.6817 15.135 24.955 15.6 24.3667C14.485 24.0865 13.5026 23.4264 12.8217 22.5C12.8334 22.5083 12.9984 22.62 13.265 22.7667C13.2829 22.7877 13.3051 22.8048 13.33 22.8167C13.3511 22.8313 13.3734 22.8441 13.3967 22.855C13.423 22.867 13.4482 22.8815 13.4717 22.8983C13.8435 23.1033 14.2295 23.2815 14.6267 23.4317C15.3818 23.7307 16.1629 23.9594 16.96 24.115C17.6579 24.2466 18.3665 24.3135 19.0767 24.315C19.7426 24.3149 20.4071 24.2536 21.0617 24.1317C21.8501 23.9932 22.6201 23.7651 23.3567 23.4517C23.9929 23.207 24.6 22.8922 25.1667 22.5133ZM21.77 21.8017C21.0449 21.8649 20.3553 21.4765 20.0335 20.8236C19.7118 20.1708 19.8237 19.3873 20.3156 18.8507C20.8074 18.3142 21.5781 18.1345 22.2565 18.3984C22.9349 18.6622 23.3817 19.3155 23.3817 20.0433C23.4184 20.9732 22.6979 21.7584 21.7684 21.8017H21.77ZM15.99 21.8017C15.0781 21.7222 14.3783 20.9587 14.3783 20.0433C14.3783 19.128 15.0781 18.3645 15.99 18.285C16.4101 18.2863 16.8117 18.4576 17.1034 18.76C17.4343 19.1035 17.6143 19.5649 17.6034 20.0417C17.6419 20.9731 16.9197 21.7602 15.9884 21.8017H15.99Z" fill="#5F5CE0"/>
</svg>
