<?xml version="1.0" standalone="no"?>
<!DOCTYPE svg PUBLIC "-//W3C//DTD SVG 20010904//EN"
 "http://www.w3.org/TR/2001/REC-SVG-20010904/DTD/svg10.dtd">
<svg version="1.0" xmlns="http://www.w3.org/2000/svg"
 width="842.000000pt" height="467.000000pt" viewBox="0 0 842.000000 467.000000"
 preserveAspectRatio="xMidYMid meet">

<g transform="translate(0.000000,467.000000) scale(0.100000,-0.100000)"
fill="#000000" stroke="none">
<path d="M4193 4663 l4197 -3 0 -50 0 -50 -3802 0 c-2092 0 -3956 -3 -4144 -7
l-340 -6 -44 39 -43 39 6 -35 c3 -19 10 -55 16 -80 5 -25 14 -66 20 -91 35
-162 87 -394 101 -449 9 -34 23 -96 40 -175 5 -22 16 -69 24 -105 8 -36 27
-119 42 -185 14 -66 30 -136 34 -155 4 -19 13 -60 20 -90 13 -60 12 -54 65
-290 20 -91 42 -185 47 -210 6 -25 13 -61 18 -80 41 -185 128 -573 140 -620 5
-19 13 -55 19 -80 15 -71 30 -136 41 -182 6 -24 24 -106 41 -183 17 -77 35
-156 39 -175 4 -19 13 -60 20 -90 14 -63 14 -66 65 -290 39 -171 45 -198 65
-290 7 -30 16 -71 21 -90 10 -45 24 -103 47 -210 11 -47 39 -172 62 -277 l43
-193 3158 0 c2999 0 3158 1 3163 17 5 16 69 301 98 433 14 63 22 98 53 235 38
166 41 182 55 245 7 30 16 71 20 90 4 19 22 98 39 175 17 77 35 159 41 183 5
23 15 62 20 87 24 109 32 142 40 175 14 57 37 157 75 335 14 66 35 158 46 205
20 85 32 139 49 215 5 22 16 69 24 105 8 36 27 119 42 185 42 191 46 208 54
245 23 104 163 724 175 775 8 33 33 143 56 245 42 185 47 207 69 310 17 80 25
111 55 245 15 66 30 130 32 143 l5 22 -4213 -2 -4214 -3 4198 -2z m94 -1154
c59 -24 79 -35 99 -54 18 -17 144 -209 144 -220 0 -2 34 -59 76 -127 42 -67
100 -161 128 -208 119 -194 116 -190 146 -190 24 0 56 27 176 145 80 80 160
153 177 162 17 8 58 18 92 21 107 8 206 -52 240 -147 13 -38 15 -159 15 -960
l0 -916 -24 -51 c-62 -133 -235 -175 -354 -86 -27 19 -162 209 -162 226 0 2
-30 53 -66 113 -37 59 -75 123 -85 141 -39 68 -52 82 -73 82 -14 0 -94 -72
-235 -209 -118 -115 -232 -219 -254 -230 -48 -26 -138 -28 -193 -5 -26 11
-110 87 -254 230 -141 140 -223 214 -236 214 -12 0 -28 -8 -36 -17 -14 -16
-111 -172 -142 -228 -63 -113 -168 -275 -198 -305 -42 -41 -93 -60 -162 -60
-86 0 -165 51 -208 135 -21 39 -21 52 -22 975 -1 854 0 938 16 970 39 81 130
140 218 140 84 0 130 -30 295 -192 102 -100 157 -148 172 -148 16 0 32 15 58
55 19 31 35 58 35 61 0 3 18 32 40 64 22 32 40 61 40 64 0 3 16 31 36 62 19
30 85 136 145 235 130 215 131 216 229 257 34 14 93 15 127 1z"/>
<path d="M4204 3242 c-11 -7 -86 -130 -286 -472 -146 -248 -150 -257 -139
-277 5 -10 102 -109 214 -221 186 -184 208 -203 236 -200 40 4 451 399 451
434 0 21 -33 81 -173 317 -26 43 -47 81 -47 84 0 2 -13 24 -30 48 -16 24 -30
46 -30 48 0 6 -129 218 -142 235 -12 13 -37 16 -54 4z"/>
<path d="M3126 2734 c-22 -22 -24 -361 -2 -402 8 -15 253 -265 544 -555 487
-487 532 -528 559 -525 25 2 128 100 559 525 291 288 537 535 546 550 15 24
18 54 18 206 0 104 -4 186 -10 198 -7 12 -21 19 -39 19 -24 0 -96 -69 -478
-454 -284 -286 -466 -462 -491 -475 -57 -29 -152 -28 -209 2 -27 14 -213 192
-497 475 -249 248 -460 452 -469 452 -9 0 -23 -7 -31 -16z"/>
<path d="M3120 1911 c-6 -13 -10 -146 -10 -364 0 -372 1 -377 52 -364 22 6 89
108 195 299 17 31 43 74 57 95 45 65 40 75 -107 221 -136 135 -165 152 -187
113z"/>
<path d="M5142 1794 c-73 -75 -132 -144 -132 -153 0 -9 9 -27 20 -41 11 -14
20 -29 20 -33 0 -5 9 -21 19 -36 11 -15 34 -54 52 -86 18 -33 52 -90 76 -128
24 -37 43 -71 43 -75 1 -12 34 -48 52 -55 42 -16 45 4 50 360 4 277 3 342 -9
361 -27 44 -52 29 -191 -114z"/>
</g>
</svg>
