<svg width="16" height="16" viewBox="0 0 16 16" fill="none" xmlns="http://www.w3.org/2000/svg">
<ellipse cx="7.72051" cy="4.85201" rx="3.18535" ry="3.18535" stroke="#5C5E73" stroke-width="1.5" stroke-linecap="round" stroke-linejoin="round"/>
<path fill-rule="evenodd" clip-rule="evenodd" d="M2.66798 12.4676C2.66712 12.2437 2.7172 12.0225 2.81443 11.8207C3.11954 11.2105 3.97996 10.8871 4.69391 10.7407C5.20882 10.6308 5.73084 10.5574 6.25608 10.521C7.22853 10.4356 8.20659 10.4356 9.17904 10.521C9.70424 10.5578 10.2262 10.6312 10.7412 10.7407C11.4552 10.8871 12.3156 11.18 12.6207 11.8207C12.8162 12.2319 12.8162 12.7093 12.6207 13.1205C12.3156 13.7612 11.4552 14.0542 10.7412 14.1945C10.2269 14.3089 9.7047 14.3844 9.17904 14.4203C8.38755 14.4874 7.59236 14.4996 6.79918 14.4569C6.61611 14.4569 6.43915 14.4569 6.25608 14.4203C5.73239 14.3849 5.21218 14.3094 4.70002 14.1945C3.97996 14.0542 3.12565 13.7612 2.81443 13.1205C2.7177 12.9165 2.66767 12.6934 2.66798 12.4676Z" stroke="#5C5E73" stroke-width="1.5" stroke-linecap="round" stroke-linejoin="round"/>
</svg>
