<svg width="16" height="16" viewBox="0 0 16 16" fill="none" xmlns="http://www.w3.org/2000/svg">
<path d="M8.67504 10.2571H5.49551V11.9929H10.3932V13.45H5.49551V16H3.67864V13.45H2V11.9929H3.67864V10.2571H2V8.45714H3.67864V1H8.67504C9.87313 1 10.8935 1.45714 11.7361 2.37143C12.5787 3.27143 13 4.36429 13 5.65C13 6.93571 12.5787 8.02857 11.7361 8.92857C10.9066 9.81429 9.88629 10.2571 8.67504 10.2571ZM5.49551 2.86429V8.45714H8.67504C9.35966 8.45714 9.94554 8.18571 10.4327 7.64286C10.933 7.08571 11.1831 6.42143 11.1831 5.65C11.1831 4.87857 10.9396 4.22143 10.4524 3.67857C9.96529 3.13571 9.37283 2.86429 8.67504 2.86429H5.49551Z" fill="#5C5E73"/>
</svg>
