<svg width="40" height="40" viewBox="0 0 40 40" fill="none" xmlns="http://www.w3.org/2000/svg">
<path d="M20.0097 31.6866H19.9763C19.873 31.6866 9.53468 31.6666 6.92635 30.9583C5.49205 30.5719 4.37193 29.4511 3.98635 28.0166C3.51731 25.3705 3.29082 22.6872 3.30968 19.9999C3.29756 17.3083 3.53019 14.6211 4.00468 11.9716C4.40086 10.5358 5.51606 9.40983 6.94801 8.99992C9.48468 8.33325 19.538 8.33325 19.9647 8.33325H19.9997C20.1047 8.33325 30.4697 8.35325 33.0513 9.06159C34.4826 9.44993 35.6005 10.5684 35.988 11.9999C36.472 14.6558 36.6991 17.3521 36.6663 20.0516C36.678 22.74 36.4448 25.4238 35.9697 28.0699C35.5791 29.5026 34.4583 30.6209 33.0247 31.0083C30.4913 31.6799 20.4363 31.6866 20.0097 31.6866ZM16.6763 15.0083L16.668 25.0083L25.3547 20.0083L16.6763 15.0083Z" fill="#F32F2F"/>
</svg>
